# xmcd
#
# Track frame offsets: 
#        182
#        10397
#        23010
#        36580
#        50945
#        61597
#        79535
#        96165
#        107342
#        122920
#        138507
#        151630
#        163370
#        191365
#        201977
#        213352
#        223255
#        251672
#        262945
#        274340
#
# Disc length: 3798 seconds
#
# Revision: 1
# Processed by: cddbd v1.5.2PL0 Copyright (c) Steve Scherf et al.
# Submitted via: ExactAudioCopyFreeDBPlugin 1.0
#
DISCID=220ed414
DTITLE=Various Artist - Charly Blues Masterworks: Disc 3 - From Coast To Coas
DTITLE=t
DYEAR=1994
DGENRE=Blues
TTITLE0=Guitar Junior - The Crawl
TTITLE1=T. Bone Walker - Inspiration Blues
TTITLE2=T. Bone Walker - T. Bone Shuffle
TTITLE3=Lowell Fulson - Reconsider Baby
TTITLE4=Lightnin' Hopkins - Coffee House Blues
TTITLE5=Lightnin' Hopkins - Letter To My Back Door Friend
TTITLE6=Lightnin' Hopkins - Fishing Clothes
TTITLE7=Elmore James - Person To Person
TTITLE8=Bessie Smith - Down Hearted Blues
TTITLE9=Bessie Smith - Careless Love Blues
TTITLE10=John Lee Hooker - I See You When You're Weak
TTITLE11=John Lee Hooker - Walkin' The Boogie
TTITLE12='Champion' Jack Dupree - Hard Feeling
TTITLE13=Arthung 'Big Boy' Crudup - That's All Right
TTITLE14=Elmore James - Shake Your Moneymaker
TTITLE15=John Lee Hooker - Dimples
TTITLE16=Jimmy Witherspoon - Ain't Nobody's Business
TTITLE17=Frank Frost - Jelly Roll King
TTITLE18=John Lee Hooker - Boom Boom
TTITLE19=Guitar Junior - Family Rules (Angel Child)
EXTD=
EXTT0=
EXTT1=
EXTT2=
EXTT3=
EXTT4=
EXTT5=
EXTT6=
EXTT7=
EXTT8=
EXTT9=
EXTT10=
EXTT11=
EXTT12=
EXTT13=
EXTT14=
EXTT15=
EXTT16=
EXTT17=
EXTT18=
EXTT19=
PLAYORDER=
